<svg xmlns="http://www.w3.org/2000/svg" viewBox="0 0 56.31 56.69"><title>chat</title><g data-name="Layer 2"><g data-name="Layer 1"><path d="M.3,55.39A5.27,5.27,0,0,0,1,55a18.76,18.76,0,0,0,5.5-7.47,1.45,1.45,0,0,0-.27-1.68A27.24,27.24,0,0,1,.4,32.94,27.65,27.65,0,0,1,6.15,10.61,27.22,27.22,0,0,1,19.87,1.27,28,28,0,0,1,45.08,5.68a28.05,28.05,0,0,1,10.86,27,28.06,28.06,0,0,1-22,23.1,28,28,0,0,1-12.09-.12,34.88,34.88,0,0,1-4.52-1.47,1.88,1.88,0,0,0-1.75.08A18.91,18.91,0,0,1,1.18,56a4.72,4.72,0,0,1-.73-.33ZM28.15,25.3a3.51,3.51,0,0,0-3.55,3.49,3.55,3.55,0,1,0,7.09,0A3.5,3.5,0,0,0,28.15,25.3Zm13.6,0a3.56,3.56,0,0,0-3.57,3.49,3.62,3.62,0,0,0,3.6,3.58,3.58,3.58,0,0,0,3.49-3.57A3.45,3.45,0,0,0,41.75,25.31ZM11,28.85a3.54,3.54,0,0,0,7.08,0,3.55,3.55,0,0,0-3.62-3.51A3.43,3.43,0,0,0,11,28.85Z"/></g></g></svg>
