<svg height="15" viewBox="0 0 15 15" width="15" xmlns="http://www.w3.org/2000/svg"><path d="m12.9786685 0h-10.95737369c-1.11630808 0-2.02129481.90494339-2.02129481 2.02127998v10.95736662c0 1.1163366.90495004 2.02128 2.02129481 2.02128h5.40412442l.00921022-5.36016222h-1.392578c-.18097533 0-.32786184-.14633502-.32855903-.32730902l-.00667832-1.72780268c-.00069719-.18196473.14662964-.32984089.32859571-.32984089h1.39004611v-1.66949617c0-1.93743457 1.18327483-2.99238236 2.91160388-2.99238236h1.4182272c.1814524 0 .3285957.14710559.3285957.3285933v1.45689208c0 .18141433-.1470333.32848323-.3284122.32859331l-.8703475.00040363c-.93991953 0-1.1219223.44663738-1.1219223 1.10209938v1.44533352h2.0653277c.1967905 0 .3494747.17183723.326284.36726861l-.2047898 1.72780267c-.0195946.16534243-.1598028.289918-.326284.289918h-1.85132767l-.00921023 5.36016224h3.2155412c1.1163081 0 2.0212581-.9049434 2.0212581-2.0212433v-10.95747672c-.0000367-1.11633659-.9049867-2.02127998-2.0213315-2.02127998z" fill="#475993" fill-rule="evenodd"/></svg>