<svg xmlns="http://www.w3.org/2000/svg" viewBox="0 0 56.69 56.69"><defs><style></style></defs><title>fb</title><g data-name="Layer 2"><g data-name="Layer 1"><path class="cls-1" d="M0,46.66V10c0-.06,0-.12,0-.17,0-.34.06-.69.13-1a10.43,10.43,0,0,1,3.28-6,10.18,10.18,0,0,1,7-2.8Q28.34,0,46.2,0a10,10,0,0,1,3.72.72,10.63,10.63,0,0,1,6.77,10q0,17.65,0,35.31a10.75,10.75,0,0,1-.26,2.41A10.64,10.64,0,0,1,46,56.69H10.63a10.62,10.62,0,0,1-7.82-3.44A10.38,10.38,0,0,1,.14,47.78C.08,47.41,0,47,0,46.66ZM21.42,23.92v6.62h3.43V50.15h8.86V30.53H39l.72-6.62h-6c0-.07,0-.13,0-.18,0-1.14,0-2.28,0-3.42A11.79,11.79,0,0,1,33.8,19a1.48,1.48,0,0,1,1.08-1.32,4.51,4.51,0,0,1,1.38-.19h4V10.91h-.09c-2.5,0-5,0-7.5,0a9.91,9.91,0,0,0-3,.54,6.24,6.24,0,0,0-3.7,3,9.82,9.82,0,0,0-1,4.42c0,1.58,0,3.15,0,4.73,0,.08,0,.15,0,.24Z"/></g></g></svg>
