<svg xmlns="http://www.w3.org/2000/svg" viewBox="0 0 40.34 47.37"><title>Asset 7</title><g data-name="Layer 2"><g data-name="Layer 1"><path d="M27,21.39l-8.19,8.19a1.76,1.76,0,0,1-2.49,0l-3.13-3.13A1.76,1.76,0,1,1,15.66,24l1.88,1.88,6.94-6.94A1.76,1.76,0,0,1,27,21.39Z"/><path d="M40.3,12.85v0c0-.46,0-.94,0-1.47a5,5,0,0,0-4.73-4.92A19.48,19.48,0,0,1,22.26.84l0,0a3,3,0,0,0-4.12,0l0,0A19.49,19.49,0,0,1,4.82,6.43,5,5,0,0,0,.09,11.35c0,.53,0,1,0,1.47v.09c-.11,5.55-.24,12.47,2.08,18.74a23.86,23.86,0,0,0,5.72,8.91A29.94,29.94,0,0,0,19,47.18a3.46,3.46,0,0,0,.46.13,3.39,3.39,0,0,0,1.33,0,3.47,3.47,0,0,0,.46-.13,30,30,0,0,0,11.19-6.63,23.89,23.89,0,0,0,5.72-8.92C40.53,25.34,40.4,18.42,40.3,12.85ZM20.17,35.49A11.81,11.81,0,1,1,32,23.69,11.82,11.82,0,0,1,20.17,35.49Z"/></g></g></svg>
