<svg xmlns="http://www.w3.org/2000/svg" xmlns:xlink="http://www.w3.org/1999/xlink" viewBox="0 0 56.69 45.76"><defs><style>{mask:url(#mask-2-2);}</style><mask x="0" y="0" width="25.74" height="14.88" maskUnits="userSpaceOnUse"><g><polygon points="0 0 0 14.88 25.74 14.88 25.74 0 0 0"/></g></mask><mask x="32.59" y="17.12" width="24.1" height="25.22" maskUnits="userSpaceOnUse"><g><polygon points="56.69 17.12 56.69 42.33 32.59 42.33 32.59 17.12 56.69 17.12"/></g></mask></defs><title>gem</title><g data-name="Layer 2"><g data-name="Layer 1"><g ><g data-name="home"><g><g><g><path d="M0,14.66c2.2-2.48,4.4-5,6.59-7.44C8.51,5,10.4,2.8,12.33.62a1.59,1.59,0,0,1,1-.59c4.09,0,8.18,0,12.45,0-.31.42-.5.71-.73,1C21.26,5.34,17.49,9.7,13.75,14.08a2.08,2.08,0,0,1-1.8.8c-4,0-8,0-12,0Z"/></g></g><path d="M15.4,17.18h26l-13,28.59-13-28.59"/><path d="M56.66,14.86c-4.21,0-8.27,0-12.34,0a1.53,1.53,0,0,1-1-.49C39.24,9.66,35.2,4.95,31.06.13A5.58,5.58,0,0,1,31.83,0c3.77,0,7.54,0,11.31,0a1.68,1.68,0,0,1,1.15.43q6.11,7,12.14,14a3,3,0,0,1,.22.44"/><path d="M40.62,14.8H16.17L28.4.58,40.62,14.8"/><path d="M24,42.34.2,17.26a8.29,8.29,0,0,1,.88-.11c3.62,0,7.24,0,10.86,0a1.16,1.16,0,0,1,1.27.76Q18.57,29.78,24,41.66a5.22,5.22,0,0,1,.19.59l-.14.08"/><g><g class="cls-4"><path d="M56.69,17.14,32.76,42.33l-.16-.09c.13-.32.26-.64.4-1Q38.24,29.7,43.48,18.11a1.44,1.44,0,0,1,1.56-1c3.76,0,7.52,0,11.65,0"/></g></g></g></g></g></g></g></svg>
