<svg height="15" viewBox="0 0 15 15" width="15" xmlns="http://www.w3.org/2000/svg"><g fill="none" fill-rule="evenodd"><path d="m3.32431641 9.0646875-.52212891 1.9491797-1.90836914.0403711c-.57032227-1.05782228-.89381836-2.26810549-.89381836-3.5542383 0-1.24368164.30246094-2.41649414.83859375-3.44917969h.00041016l1.69898437.31148438.74425781 1.68878906c-.15577148.45413086-.24067382.94163086-.24067382 1.44890625.00005859.55054687.09978515 1.07803711.28274414 1.5646875z" fill="#fbbb00"/><path d="m14.8689551 6.09890625c.0861328.45369141.1310449.92223633.1310449 1.40109375 0 .53695313-.0564551 1.06072266-.1640039 1.56594727-.3650977 1.71922853-1.3190918 3.22045893-2.6406445 4.28282223l-.0004102-.0004101-2.1399609-.1091895-.30287113-1.8906738c.87691403-.5142773 1.56222653-1.3190918 1.92322263-2.28254883h-4.01044919v-2.96704102h4.06895509z" fill="#518ef8"/><path d="m12.1949121 13.3483594.0004102.0004101c-1.2852832 1.0330957-2.91799808 1.6512305-4.6953223 1.6512305-2.85618164 0-5.33941406-1.596416-6.60618164-3.9457324l2.43049805-1.9895508c.63336914 1.6903711 2.2640039 2.8936816 4.17568359 2.8936816.82168945 0 1.59149414-.2221289 2.25205078-.6099023z" fill="#28b446"/><path d="m12.2872266 1.72664062-2.42967777 1.98914063c-.68364258-.42732422-1.49176758-.67417969-2.35754883-.67417969-1.95495117 0-3.61608398 1.25850586-4.21772461 3.00949219l-2.44327148-2.00027344h-.00041016c1.24822266-2.40659179 3.76277344-4.05082031 6.66140625-4.05082031 1.81977539 0 3.4883203.64822266 4.7872266 1.72664062z" fill="#f14336"/></g></svg>