<svg xmlns="http://www.w3.org/2000/svg" viewBox="0 0 56.69 57.25"><defs><style></style></defs><title>ig</title><g data-name="Layer 2"><g data-name="Layer 1"><g><g data-name="home"><g><g><path class="cls-1" d="M28.35,19.08a9.54,9.54,0,1,0,9.45,9.54,9.5,9.5,0,0,0-9.45-9.54Zm0-6.36A15.91,15.91,0,1,1,12.6,28.63a15.83,15.83,0,0,1,15.75-15.9Zm18.9-6.36A3.18,3.18,0,1,1,44.1,9.54a3.17,3.17,0,0,1,3.15-3.18ZM15.75,0A15.83,15.83,0,0,0,0,15.9V41.35a15.83,15.83,0,0,0,15.75,15.9h25.2a15.83,15.83,0,0,0,15.75-15.9V15.9A15.83,15.83,0,0,0,40.95,0Z"/></g></g></g></g></g></g></svg>
