<svg xmlns="http://www.w3.org/2000/svg" viewBox="0 0 56.69 56.69"><defs><style>.cls-1</style></defs><title>info</title><g data-name="Layer 2"><g data-name="Layer 1"><g><g data-name="home"><path class="cls-1" d="M29.12,19.23A5.16,5.16,0,1,0,24,14.1a5.14,5.14,0,0,0,5.11,5.14m-9.23,2.55a1,1,0,0,0-.23,1.88,12.88,12.88,0,0,0,2.68.69,1.3,1.3,0,0,1,1.1,1.17,4,4,0,0,1,0,1.16c-.34,2.12-.72,4.23-1.08,6.35-.48,2.88-1,5.76-1.41,8.65a5.38,5.38,0,0,0,4,5.8,13.13,13.13,0,0,0,4,.24,9.74,9.74,0,0,0,6.71-3,3.55,3.55,0,0,0,.67-1,.84.84,0,0,0-.23-1.1,1.26,1.26,0,0,0-1-.08c-.48.16-.9.52-1.38.7a7.74,7.74,0,0,1-1.84.54c-.81.1-2.05-.34-1.77-2.72.18-1.39.44-2.77.7-4.15.73-4,1.5-8,2.21-11.95a5.79,5.79,0,0,0,0-1.82,1.61,1.61,0,0,0-1.83-1.54c-2.94,0-8.52-.46-11.41.23M0,28.35A28.35,28.35,0,1,1,28.35,56.69,28.36,28.36,0,0,1,0,28.35"/></g></g></g></g></svg>
