<svg xmlns="http://www.w3.org/2000/svg" viewBox="0 0 56.69 55.75"><defs><style></style></defs><title>line</title><g data-name="Layer 2"><g data-name="Layer 1"><g><g data-name="home"><g><g><path class="cls-1" d="M44.61,30h-8V16.93H45c1.34,1.19.52,2.7-.64,2.7H39.32v2.48h4.77c1.34,1.19.52,2.7-.64,2.7H39.32V27.3h5.93c1.34,1.19.52,2.7-.64,2.7Zm-9.75-.73a1.49,1.49,0,0,1-1.34.94,1.33,1.33,0,0,1-1.08-.56L27.61,23v6.56c-1.18,1.36-2.68.53-2.68-.65V18.37h0A1.39,1.39,0,0,1,27.36,18l4.82,6.7V17.84c1.18-1.36,2.68-.53,2.68.65Zm-12.1-.41c0,1.18-1.5,2-2.68.65V17.84c1.18-1.36,2.68-.53,2.68.65Zm-5.1,1.39H11.43V17.88c1.18-1.36,2.68-.53,2.68.65v9h4.2c1.34,1.19.53,2.7-.64,2.7Zm38.91-8.73h0l0-.15h0l-.07-.55,0-.38v-.11h0a21.82,21.82,0,0,0-5.53-11A28.19,28.19,0,0,0,39.85,2,33.12,33.12,0,0,0,28.32,0,32.13,32.13,0,0,0,13.16,3.71C4.45,8.38-.69,17,.07,25.6a22.71,22.71,0,0,0,5,12.28,27,27,0,0,0,10.61,7.85,39.92,39.92,0,0,0,7.89,2.15l.32.06c.75.15,1,.36,1,.44a1,1,0,0,1,0,.61l-.11.46a9.13,9.13,0,0,0-.36,3.82,2.65,2.65,0,0,0,2.68,2.48h0c1.54,0,3.28-1,4.44-1.73l.15-.09C34.48,52.3,37.08,50.45,39,49c4.28-3.12,9.14-6.66,12.77-11.23a22.34,22.34,0,0,0,4.75-16.27Z"/></g></g></g></g></g></g></svg>
