<svg viewBox="0 0 56.77 51.38" xmlns="http://www.w3.org/2000/svg"><g><path d="m28.33 51.38a14.36 14.36 0 0 1 -8.79-3.17 3.51 3.51 0 0 0 -2.21-.79 26.61 26.61 0 0 1 -11-2.51 12.38 12.38 0 0 1 -6.08-7c-.45-1.14-.28-1.63.83-2a4.53 4.53 0 0 0 3.23-3.6c.69-3.31 1.34-6.63 2.19-9.91a78.63 78.63 0 0 1 3.1-10.25 19.88 19.88 0 0 1 12.14-11.54 7.84 7.84 0 0 1 6.26.1.93.93 0 0 0 .71 0c2.73-1.29 5.38-.69 7.9.49a20.54 20.54 0 0 1 11.39 13.01c1.46 4.78 2.43 9.72 3.62 14.59.34 1.4.67 2.8 1.07 4.17a4.13 4.13 0 0 0 2.72 2.84c1.48.54 1.61.94 1 2.41a13 13 0 0 1 -9.7 8.09c-2.46.58-5 .75-7.52 1.17a4.12 4.12 0 0 0 -1.77.67 15 15 0 0 1 -9.09 3.23zm6.79-34.31-.8.94a27.31 27.31 0 0 1 -6.74 5.84 15.7 15.7 0 0 1 -13.9 1.59 2.6 2.6 0 0 0 -1.29-.11 4.59 4.59 0 0 0 .26 9c.43.06.86.08 1.32.12l.28 1a22.09 22.09 0 0 0 4.29 8.41c5.58 6.63 14 6.68 19.62.13a21 21 0 0 0 4.4-8.59 1.32 1.32 0 0 1 1.2-1.15 4.46 4.46 0 0 0 3.5-4.41 4.4 4.4 0 0 0 -3.43-4.45 9.87 9.87 0 0 1 -6.51-4.57c-.8-1.16-1.45-2.44-2.2-3.75z"/><path d="m28.55 42.64a6.15 6.15 0 0 1 -4.71-1.64 2.4 2.4 0 0 1 -.68-1 1.16 1.16 0 0 1 .28-1 1 1 0 0 1 1 .21c1.48 2 3.52 2.13 5.64 1.57a5.21 5.21 0 0 0 2-1.38c.41-.39.78-.86 1.24-.38a1.42 1.42 0 0 1 .07 1.32 4.75 4.75 0 0 1 -3.74 2.24c-.36.01-.77.03-1.1.06z"/><path d="m20.08 31.15a1.91 1.91 0 0 1 2-1.84 1.9 1.9 0 1 1 -.12 3.81 1.92 1.92 0 0 1 -1.88-1.97z"/><path d="m37.31 31.17a1.9 1.9 0 1 1 -1.94-1.86 1.9 1.9 0 0 1 1.94 1.86z"/></g></svg>
