<svg xmlns="http://www.w3.org/2000/svg" viewBox="0 0 58.03 56.69"><defs><style>.cls-1</style></defs><title>promo</title><g data-name="Layer 2"><g data-name="Layer 1"><path d="M29,0C13,0,0,12.69,0,28.35S13,56.69,29,56.69,58,44,58,28.35,45,0,29,0ZM12.19,18.37a7.76,7.76,0,0,1,7.6-7.81h0a7.63,7.63,0,0,1,7.66,7.6s0,.1,0,.14a7.63,7.63,0,1,1-15.26.06ZM20.6,43.29l-4.41-3.54,22.6-27.88,4.38,3.54Zm18.31,1A7.63,7.63,0,0,1,38.68,29h.12a7.63,7.63,0,0,1,.12,15.26Z"/><circle cx="19.79" cy="18.31" r="2"/><circle cx="38.68" cy="36.62" r="2"/></g></g></svg>
