<svg xmlns="http://www.w3.org/2000/svg" viewBox="0 0 59.49 56.69"><defs><style>.cls-1</style></defs><title>top</title><g data-name="Layer 2"><g data-name="Layer 1"><g><g data-name="home"><g><path d="M4.71,45.08a2.32,2.32,0,0,0,2.36,2.36,2.36,2.36,0,0,0,0-4.71,2.32,2.32,0,0,0-2.36,2.36ZM0,25.34c.88-1.18,2.06-1.47,3.83-1.47h8.55c2.36,0,3.24.88,3.24,3.24v22.1c0,2.36-.88,3.24-3.24,3.24H3.24c-1.47,0-2.65-.29-3.24-1.77Z"/><g><path d="M41.84,18.93h10a7,7,0,0,1,6.78,4.13c1.47,2.65.88,5.3-.59,7.66a2,2,0,0,0-.29,1.77,7.76,7.76,0,0,1-.88,6.19,2.21,2.21,0,0,0-.29,1.47,8.44,8.44,0,0,1-1.77,6.48,2.23,2.23,0,0,0-.59,1.18c.29,5.89-3.54,8.84-9.13,8.84A48.52,48.52,0,0,1,26.81,53.7c-2.06-.88-4.42-1.18-6.78-2.06-1.47,0-2.36-.59-2.36-2.06V26.3a2.33,2.33,0,0,1,1.47-2.36c1.77-.29,2.65-1.47,3.83-2.65a114.21,114.21,0,0,0,7.66-9.13c.88-1.77,1.18-3.83,2.06-5.6.59-1.47.88-3.24,1.47-4.71A2.67,2.67,0,0,1,37.42.07c4.42.29,6.78,2.65,7.37,7.07a15.79,15.79,0,0,1-2.06,9.72,14.37,14.37,0,0,0-.88,2.06"/></g></g></g></g></g></g></svg>
