<svg xmlns="http://www.w3.org/2000/svg" viewBox="0 0 56.69 46.2"><defs><style></style></defs><title>truck_1</title><g data-name="Layer 2"><g data-name="Layer 1"><path d="M0,2.1V35.7a2.62,2.62,0,0,0,.13.87,1.24,1.24,0,0,0,.44.61l.54.38a1.81,1.81,0,0,0,.77.2l.74.07q.2,0,.84,0l.74,0a8.09,8.09,0,0,0,2.46,5.94A8.09,8.09,0,0,0,12.6,46.2a8.09,8.09,0,0,0,5.94-2.46A8.09,8.09,0,0,0,21,37.8H33.6A8.4,8.4,0,0,0,42,46.2a8.4,8.4,0,0,0,8.4-8.4h2.1l.74,0q.64,0,.84,0l.74-.07a1.81,1.81,0,0,0,.77-.2l.54-.38a1.24,1.24,0,0,0,.44-.61,2.64,2.64,0,0,0,.13-.87,2.13,2.13,0,0,0-2.1-2.1V23.1q0-.26,0-1.15t0-1.25q0-.36-.08-1.13a5.44,5.44,0,0,0-.21-1.21,6,6,0,0,0-.46-1,4.47,4.47,0,0,0-.74-1l-6.5-6.5A5.7,5.7,0,0,0,43,8.4H37.79V2.1A2,2,0,0,0,37.17.62,2,2,0,0,0,35.7,0H2.1A2,2,0,0,0,.62.62,2,2,0,0,0,0,2.1ZM37.8,37.8a4.26,4.26,0,1,1,1.25,3A4,4,0,0,1,37.8,37.8Zm0-25.2H43a1,1,0,0,1,.72.3l6.4,6.4a1,1,0,0,1,.3.72v1H37.8ZM8.4,37.8a4,4,0,0,1,1.25-3,4.12,4.12,0,0,1,5.91,0,4.12,4.12,0,0,1,0,5.91,4.12,4.12,0,0,1-5.91,0A4,4,0,0,1,8.4,37.8Z"/></g></g></svg>
