<svg xmlns="http://www.w3.org/2000/svg" viewBox="0 0 64.16 41.36"><defs></defs><title>Asset 5</title><g data-name="Layer 2"><g  data-name="Layer 1"><path d="M51,26.32a1.88,1.88,0,1,0,1.88,1.88A1.88,1.88,0,0,0,51,26.32Z"/><path d="M62.28,0H19V5.64a1.88,1.88,0,1,1-3.76,0V0H1.88A1.88,1.88,0,0,0,0,1.88V13.16A1.88,1.88,0,0,0,1.88,15a5.64,5.64,0,1,1,0,11.28A1.88,1.88,0,0,0,0,28.2V39.48a1.88,1.88,0,0,0,1.88,1.88H15V35.72a1.88,1.88,0,1,1,3.76,0v5.64H62.28a1.88,1.88,0,0,0,1.88-1.88V1.88A1.88,1.88,0,0,0,62.28,0ZM18.8,28.2a1.88,1.88,0,0,1-3.76,0V24.44a1.88,1.88,0,0,1,3.76,0Zm0-11.28a1.88,1.88,0,1,1-3.76,0V13.16a1.88,1.88,0,1,1,3.76,0Zm11.53-3.76A5.64,5.64,0,1,1,36,18.8,5.65,5.65,0,0,1,30.33,13.16Zm4.6,20.36a1.88,1.88,0,0,1-.52-2.61l15-22.56a1.88,1.88,0,0,1,3.13,2.09L37.53,33A1.88,1.88,0,0,1,34.92,33.52ZM51,33.84a5.64,5.64,0,1,1,5.64-5.64A5.65,5.65,0,0,1,51,33.84Z"/><path d="M36,11.28a1.88,1.88,0,1,0,1.88,1.88A1.88,1.88,0,0,0,36,11.28Z"/></g></g></svg>
