<svg xmlns="http://www.w3.org/2000/svg" viewBox="0 0 62.37 43.59"><defs><style></style></defs><title>yutup</title><g data-name="Layer 2"><g data-name="Layer 1"><g><g data-name="home"><g><g><path class="cls-1" d="M25.19,31.47V12.12l15.56,9.68ZM61,6.8a7.79,7.79,0,0,0-5.5-5.52C50.65,0,31.16,0,31.16,0S12-.08,7.17,1.2a8.56,8.56,0,0,0-6,5.6C-.12,11.68,0,21.79,0,21.79s-.12,10.12,1.19,15a8.63,8.63,0,0,0,6,5.6c4.87,1.32,24,1.2,24,1.2s19.12.08,24-1.2a8.44,8.44,0,0,0,5.9-5.6c1.31-4.84,1.31-15,1.31-15s0-10.12-1.35-15Z"/></g></g></g></g></g></g></svg>
